<?xml version="1.0" encoding="iso-8859-1"?>
<!-- Generator: Adobe Illustrator 16.0.0, SVG Export Plug-In . SVG Version: 6.00 Build 0)  -->
<!DOCTYPE svg PUBLIC "-//W3C//DTD SVG 1.1//EN" "http://www.w3.org/Graphics/SVG/1.1/DTD/svg11.dtd">
<svg version="1.1" id="Capa_1" xmlns="http://www.w3.org/2000/svg" xmlns:xlink="http://www.w3.org/1999/xlink" x="0px" y="0px"
	 width="32" height="30" viewBox="0 0 445.369 445.369" style="enable-background:new 0 0 445.369 445.369;"
	 xml:space="preserve">
<g>
	<path d="M312.373,46.525H132.999C59.663,46.525,0,106.187,0,179.523c0,73.338,59.663,133,132.999,133h63.564v70.838
		c0,6.283,3.753,11.898,9.561,14.306c1.888,0.78,3.884,1.178,5.919,1.178c4.138,0,8.013-1.596,10.912-4.5l82.391-81.82h7.025
		c73.336,0,132.998-59.661,132.998-133C445.369,106.187,385.707,46.525,312.373,46.525z M222.684,265.559
		c0,0-84.4-49.98-84.4-103.654c0-28.547,23.143-51.688,51.689-51.688c12.412,0,23.801,4.377,32.711,11.668
		c8.912-7.291,20.3-11.668,32.712-11.668c28.547,0,51.689,23.141,51.689,51.688C307.086,215.579,222.684,265.559,222.684,265.559z"
		/>
</g>
<g>
</g>
<g>
</g>
<g>
</g>
<g>
</g>
<g>
</g>
<g>
</g>
<g>
</g>
<g>
</g>
<g>
</g>
<g>
</g>
<g>
</g>
<g>
</g>
<g>
</g>
<g>
</g>
<g>
</g>
</svg>
